<mxfile host="65bd71144e">
    <diagram id="tiHWdJuNlItrzbmoCw24" name="Page-1">
        <mxGraphModel dx="270" dy="80" grid="1" gridSize="10" guides="1" tooltips="1" connect="1" arrows="1" fold="1" page="1" pageScale="1" pageWidth="827" pageHeight="1169" math="0" shadow="0">
            <root>
                <mxCell id="0"/>
                <mxCell id="1" parent="0"/>
                <mxCell id="e0ocubRWt2lnVUesYjvf-1" value="Utente Anonimo" style="shape=umlActor;verticalLabelPosition=bottom;verticalAlign=top;html=1;outlineConnect=0;" parent="1" vertex="1">
                    <mxGeometry x="430" y="50" width="30" height="60" as="geometry"/>
                </mxCell>
                <mxCell id="QeCayu9k6ndQlOudQs32-8" style="edgeStyle=orthogonalEdgeStyle;rounded=0;orthogonalLoop=1;jettySize=auto;html=1;exitX=0.5;exitY=0;exitDx=0;exitDy=0;exitPerimeter=0;entryX=0.25;entryY=0.1;entryDx=0;entryDy=0;entryPerimeter=0;endArrow=block;endFill=0;endSize=15;" parent="1" source="e0ocubRWt2lnVUesYjvf-2" target="e0ocubRWt2lnVUesYjvf-1" edge="1">
                    <mxGeometry relative="1" as="geometry">
                        <Array as="points">
                            <mxPoint x="365" y="56"/>
                        </Array>
                    </mxGeometry>
                </mxCell>
                <mxCell id="e0ocubRWt2lnVUesYjvf-2" value="Utente Autenticato" style="shape=umlActor;verticalLabelPosition=bottom;verticalAlign=top;html=1;outlineConnect=0;" parent="1" vertex="1">
                    <mxGeometry x="350" y="70" width="30" height="60" as="geometry"/>
                </mxCell>
                <mxCell id="QeCayu9k6ndQlOudQs32-10" value="&amp;lt;total&amp;gt;" style="edgeStyle=orthogonalEdgeStyle;rounded=0;orthogonalLoop=1;jettySize=auto;html=1;exitX=0.5;exitY=0;exitDx=0;exitDy=0;exitPerimeter=0;entryX=0.5;entryY=0.5;entryDx=0;entryDy=0;entryPerimeter=0;endArrow=block;endFill=0;endSize=15;" parent="1" source="e0ocubRWt2lnVUesYjvf-3" target="e0ocubRWt2lnVUesYjvf-2" edge="1">
                    <mxGeometry x="0.4375" y="10" relative="1" as="geometry">
                        <Array as="points">
                            <mxPoint x="245" y="100"/>
                        </Array>
                        <mxPoint as="offset"/>
                    </mxGeometry>
                </mxCell>
                <mxCell id="e0ocubRWt2lnVUesYjvf-3" value="Dipendente" style="shape=umlActor;verticalLabelPosition=bottom;verticalAlign=top;html=1;outlineConnect=0;" parent="1" vertex="1">
                    <mxGeometry x="230" y="140" width="30" height="60" as="geometry"/>
                </mxCell>
                <mxCell id="QeCayu9k6ndQlOudQs32-11" style="edgeStyle=orthogonalEdgeStyle;rounded=0;orthogonalLoop=1;jettySize=auto;html=1;exitX=0.5;exitY=0;exitDx=0;exitDy=0;exitPerimeter=0;endArrow=none;endFill=0;endSize=15;" parent="1" source="e0ocubRWt2lnVUesYjvf-4" edge="1">
                    <mxGeometry relative="1" as="geometry">
                        <mxPoint x="305.2413793103449" y="100" as="targetPoint"/>
                    </mxGeometry>
                </mxCell>
                <mxCell id="e0ocubRWt2lnVUesYjvf-4" value="Cliente" style="shape=umlActor;verticalLabelPosition=bottom;verticalAlign=top;html=1;outlineConnect=0;" parent="1" vertex="1">
                    <mxGeometry x="290" y="140" width="30" height="60" as="geometry"/>
                </mxCell>
                <mxCell id="QeCayu9k6ndQlOudQs32-1" value="&amp;lt;total&amp;gt;" style="edgeStyle=orthogonalEdgeStyle;rounded=0;orthogonalLoop=1;jettySize=auto;html=1;exitX=0.5;exitY=0;exitDx=0;exitDy=0;exitPerimeter=0;entryX=0.25;entryY=0.1;entryDx=0;entryDy=0;entryPerimeter=0;endSize=15;endArrow=block;endFill=0;" parent="1" source="e0ocubRWt2lnVUesYjvf-5" target="e0ocubRWt2lnVUesYjvf-3" edge="1">
                    <mxGeometry x="0.4879" y="16" relative="1" as="geometry">
                        <Array as="points">
                            <mxPoint x="115" y="146"/>
                        </Array>
                        <mxPoint as="offset"/>
                    </mxGeometry>
                </mxCell>
                <mxCell id="e0ocubRWt2lnVUesYjvf-5" value="Tecnico" style="shape=umlActor;verticalLabelPosition=bottom;verticalAlign=top;html=1;outlineConnect=0;" parent="1" vertex="1">
                    <mxGeometry x="100" y="170" width="30" height="60" as="geometry"/>
                </mxCell>
                <mxCell id="QeCayu9k6ndQlOudQs32-3" style="edgeStyle=orthogonalEdgeStyle;rounded=0;orthogonalLoop=1;jettySize=auto;html=1;exitX=0.5;exitY=0;exitDx=0;exitDy=0;exitPerimeter=0;endArrow=none;endFill=0;endSize=15;" parent="1" source="e0ocubRWt2lnVUesYjvf-6" edge="1">
                    <mxGeometry relative="1" as="geometry">
                        <mxPoint x="175.17948717948718" y="146" as="targetPoint"/>
                    </mxGeometry>
                </mxCell>
                <mxCell id="e0ocubRWt2lnVUesYjvf-6" value="Supervisore" style="shape=umlActor;verticalLabelPosition=bottom;verticalAlign=top;html=1;outlineConnect=0;" parent="1" vertex="1">
                    <mxGeometry x="160" y="170" width="30" height="60" as="geometry"/>
                </mxCell>
                <mxCell id="QeCayu9k6ndQlOudQs32-9" style="edgeStyle=orthogonalEdgeStyle;rounded=0;orthogonalLoop=1;jettySize=auto;html=1;exitX=0.5;exitY=0;exitDx=0;exitDy=0;exitPerimeter=0;endArrow=block;endFill=0;endSize=15;" parent="1" source="e0ocubRWt2lnVUesYjvf-7" edge="1">
                    <mxGeometry relative="1" as="geometry">
                        <mxPoint x="175.24242424242425" y="250" as="targetPoint"/>
                    </mxGeometry>
                </mxCell>
                <mxCell id="e0ocubRWt2lnVUesYjvf-7" value="Amministratore" style="shape=umlActor;verticalLabelPosition=bottom;verticalAlign=top;html=1;outlineConnect=0;" parent="1" vertex="1">
                    <mxGeometry x="160" y="270" width="30" height="60" as="geometry"/>
                </mxCell>
            </root>
        </mxGraphModel>
    </diagram>
</mxfile>